<svg width="49" height="49" viewBox="0 0 49 49" fill="none" xmlns="http://www.w3.org/2000/svg">
<path d="M8.16663 4.08331C7.08366 4.08331 6.04505 4.51352 5.27927 5.27929C4.5135 6.04507 4.08329 7.08368 4.08329 8.16665C4.08329 9.24961 4.5135 10.2882 5.27927 11.054C6.04505 11.8198 7.08366 12.25 8.16663 12.25C9.24959 12.25 10.2882 11.8198 11.054 11.054C11.8198 10.2882 12.25 9.24961 12.25 8.16665C12.25 7.08368 11.8198 6.04507 11.054 5.27929C10.2882 4.51352 9.24959 4.08331 8.16663 4.08331ZM16.3333 6.12498V10.2083H36.75V28.5833H32.6666V24.5H24.5V28.5833H18.375V32.6666H42.875V28.5833H40.8333V9.18748C40.8333 7.4929 39.4654 6.12498 37.7708 6.12498H16.3333ZM6.12496 14.2916C3.85871 14.2916 2.04163 16.1087 2.04163 18.375V32.6666V44.9166H6.12496V32.6666H10.2083V44.9166H14.2916V32.6666V18.375H26.5416V14.2916H6.12496Z" fill="#EF7D00"/>
</svg>
